<svg width="15" height="15" viewBox="0 0 15 15" fill="none" xmlns="http://www.w3.org/2000/svg">
<path d="M10.3448 14.9997H2.95567C1.33005 14.9997 0 13.6697 0 12.044V4.65488C0 3.02927 1.33005 1.69922 2.95567 1.69922H5.17241C5.61576 1.69922 5.91133 1.99479 5.91133 2.43814C5.91133 2.88148 5.61576 3.17705 5.17241 3.17705H2.95567C2.14286 3.17705 1.47783 3.84208 1.47783 4.65488V12.044C1.47783 12.8569 2.14286 13.5219 2.95567 13.5219H10.3448C11.1576 13.5219 11.8227 12.8569 11.8227 12.044V9.8273C11.8227 9.38395 12.1182 9.08838 12.5616 9.08838C13.0049 9.08838 13.3005 9.38395 13.3005 9.8273V12.044C13.3005 13.6697 11.9704 14.9997 10.3448 14.9997Z" fill="#0D52DE"/>
<path d="M7.97976 9.82893H5.91079C5.46744 9.82893 5.17188 9.53337 5.17188 9.09002V7.02105C5.17188 6.79938 5.24577 6.65159 5.39355 6.50381L9.60537 2.29199C9.75316 2.1442 9.90094 2.07031 10.1226 2.07031C10.3443 2.07031 10.4921 2.1442 10.6399 2.29199L12.7088 4.36095C13.0044 4.65652 13.0044 5.09987 12.7088 5.39544L8.497 9.60726C8.34922 9.75504 8.20143 9.82893 7.97976 9.82893ZM6.64971 8.3511H7.68419L11.1571 4.87819L10.1226 3.84371L6.64971 7.31662V8.3511Z" fill="#0D52DE"/>
<path d="M12.1907 5.61576C11.969 5.61576 11.8212 5.54187 11.6735 5.39409L9.60449 3.32512C9.30892 3.02956 9.30892 2.58621 9.60449 2.29064L11.6735 0.221675C11.969 -0.0738916 12.4124 -0.0738916 12.7079 0.221675L14.7769 2.29064C15.0725 2.58621 15.0725 3.02956 14.7769 3.32512L12.7079 5.39409C12.5602 5.54187 12.4124 5.61576 12.1907 5.61576ZM11.1562 2.80788L12.1907 3.84236L13.2252 2.80788L12.1907 1.7734L11.1562 2.80788Z" fill="#0D52DE"/>
</svg>
