<?xml version="1.0" standalone="no"?>
<!DOCTYPE svg PUBLIC "-//W3C//DTD SVG 20010904//EN"
 "http://www.w3.org/TR/2001/REC-SVG-20010904/DTD/svg10.dtd">
<svg version="1.0" xmlns="http://www.w3.org/2000/svg"
 width="772.000000pt" height="300.000000pt" viewBox="0 0 772.000000 300.000000"
 preserveAspectRatio="xMidYMid meet">

<g transform="translate(0.000000,300.000000) scale(0.100000,-0.100000)"
fill="#A7FC00" stroke="none">
<path d="M1002 2869 c-51 -26 -86 -69 -101 -126 -8 -27 -11 -148 -11 -335 l1
-293 -313 -5 c-212 -3 -319 -9 -333 -17 -32 -18 -83 -76 -94 -106 -15 -39 -15
-589 0 -642 14 -51 81 -116 136 -133 27 -8 125 -12 305 -12 244 0 266 -1 281
-18 15 -16 17 -56 19 -313 3 -255 5 -298 20 -325 24 -44 81 -91 125 -103 50
-14 536 -14 586 0 47 13 115 72 134 116 7 19 13 69 13 117 l0 84 53 12 c246
58 460 226 572 449 94 188 103 467 21 685 -74 195 -225 366 -406 460 -83 43
-113 54 -197 76 l-43 11 0 142 c0 154 -12 198 -61 244 -54 50 -79 53 -381 53
-268 0 -285 -1 -326 -21z m711 -559 c158 -23 290 -91 408 -210 61 -61 86 -96
123 -171 65 -133 80 -199 80 -349 0 -114 -3 -133 -33 -219 -17 -52 -47 -120
-66 -151 -36 -59 -111 -150 -125 -150 -4 0 -10 22 -14 49 -9 72 -68 183 -123
230 -120 106 -311 146 -486 102 -101 -26 -150 -53 -214 -117 -59 -58 -99 -134
-109 -204 -4 -25 -9 -49 -11 -53 -7 -12 -49 30 -98 98 -93 131 -125 226 -132
393 -7 146 9 225 67 347 73 152 185 262 345 340 130 64 252 84 388 65z"/>
<path d="M1527 2096 c-88 -32 -163 -110 -187 -196 -37 -133 33 -286 158 -343
67 -31 181 -30 239 1 191 101 227 337 72 476 -79 71 -189 95 -282 62z"/>
<path d="M3990 2200 l0 -520 98 0 98 0 -4 40 c-5 46 0 48 31 19 12 -11 45 -33
72 -47 41 -21 64 -26 131 -26 73 -1 87 2 149 34 82 42 142 109 175 197 32 82
32 215 1 296 -34 88 -95 156 -174 196 -57 29 -77 34 -139 35 -82 0 -163 -30
-208 -77 -14 -15 -29 -27 -33 -27 -5 0 -7 89 -6 198 l2 197 -96 3 -97 3 0
-521z m465 31 c79 -36 121 -112 113 -207 -11 -127 -139 -213 -252 -170 -117
45 -165 179 -106 296 45 89 151 124 245 81z"/>
<path d="M4911 2694 c-54 -45 -54 -125 1 -176 25 -23 39 -28 79 -28 40 0 55 5
81 29 30 27 33 35 33 86 0 51 -3 59 -33 86 -44 40 -116 41 -161 3z"/>
<path d="M3010 2361 c0 -180 5 -352 10 -382 14 -75 46 -136 102 -195 104 -111
282 -153 440 -104 118 36 191 101 246 217 l27 58 3 368 3 367 -100 0 -101 0 0
-315 c0 -360 -5 -398 -59 -458 -45 -50 -85 -67 -153 -67 -96 1 -175 56 -198
138 -6 22 -10 172 -10 370 l0 332 -105 0 -105 0 0 -329z"/>
<path d="M6130 2510 l0 -100 -65 0 -65 0 0 -82 0 -83 65 3 65 4 0 -215 c0
-128 4 -227 11 -244 37 -99 171 -152 309 -123 l60 13 0 93 0 93 -29 -10 c-16
-6 -48 -9 -71 -7 -33 2 -48 9 -64 31 -19 26 -21 41 -21 195 l0 167 92 0 93 0
0 83 0 82 -95 0 -95 0 0 100 0 100 -95 0 -95 0 0 -100z"/>
<path d="M5518 2420 c-167 -28 -288 -162 -304 -336 -16 -172 57 -309 204 -381
73 -37 80 -38 182 -38 98 0 110 2 170 32 36 18 84 52 108 76 l43 44 -72 42
-72 41 -26 -24 c-107 -103 -310 -53 -337 82 l-6 32 267 0 268 0 -5 89 c-11
190 -115 312 -289 341 -35 5 -68 9 -74 9 -5 -1 -31 -5 -57 -9z m168 -171 c33
-20 64 -72 64 -108 0 -21 -4 -21 -171 -21 l-170 0 6 23 c12 37 44 84 69 100
61 40 143 43 202 6z"/>
<path d="M4890 2048 l0 -368 95 0 95 0 0 368 0 367 -95 0 -95 0 0 -367z"/>
<path d="M6620 2404 c0 -7 260 -684 271 -705 8 -15 -1 -40 -72 -221 l-19 -48
99 0 99 0 195 488 194 487 -95 3 c-52 1 -97 1 -99 -2 -3 -2 -47 -116 -98 -253
-51 -136 -96 -241 -99 -233 -99 273 -160 441 -168 463 -10 27 -10 27 -109 27
-54 0 -99 -3 -99 -6z"/>
<path d="M3228 1395 c-241 -66 -329 -341 -157 -489 51 -43 117 -69 247 -97
111 -24 142 -38 172 -76 17 -22 21 -37 17 -71 -8 -75 -63 -112 -165 -112 -98
0 -163 47 -194 141 -3 8 -32 10 -102 4 l-98 -7 6 -41 c16 -95 99 -196 204
-245 53 -25 67 -27 187 -27 127 0 132 1 197 33 123 60 174 150 166 292 -9 158
-101 240 -328 291 -150 34 -200 68 -200 135 0 62 68 114 149 114 73 0 136 -40
162 -102 9 -23 17 -28 33 -24 12 3 54 6 94 7 82 2 83 4 55 82 -56 156 -259
243 -445 192z"/>
<path d="M4682 893 l3 -508 97 -3 97 -3 3 235 c3 219 4 236 24 262 65 87 172
98 239 24 19 -20 20 -40 25 -269 l5 -246 98 -3 97 -3 0 235 c0 307 -14 374
-96 446 -55 48 -99 63 -179 64 -79 0 -139 -24 -187 -76 l-28 -30 0 191 0 191
-100 0 -100 0 2 -507z"/>
<path d="M4185 1124 c-60 -16 -90 -29 -130 -60 l-45 -34 0 35 0 35 -90 0 c-49
0 -92 -1 -95 -2 -3 -2 -6 -227 -8 -501 l-2 -497 98 0 97 0 0 180 0 180 45 -34
c24 -19 61 -40 82 -47 56 -18 150 -16 213 5 77 27 168 118 199 201 75 198 3
424 -162 505 -61 29 -156 46 -202 34z m114 -207 c55 -37 84 -96 84 -172 0 -70
-17 -109 -67 -153 -142 -124 -342 9 -305 203 11 57 50 112 100 138 50 26 135
19 188 -16z"/>
<path d="M5755 1117 c-136 -36 -226 -120 -267 -249 -37 -120 -14 -265 57 -357
145 -186 436 -200 602 -29 l32 33 -71 43 c-71 42 -71 42 -92 23 -12 -11 -43
-30 -70 -42 -98 -43 -217 -4 -257 84 -37 82 -53 78 247 75 l267 -3 -6 80 c-13
207 -132 334 -329 349 -36 3 -84 0 -113 -7z m185 -164 c28 -16 70 -83 70 -111
0 -9 -46 -12 -170 -12 l-170 0 15 37 c21 50 42 72 90 95 47 22 119 19 165 -9z"/>
<path d="M6659 1121 c-43 -14 -72 -32 -111 -69 l-38 -36 0 47 0 47 -95 0 -95
0 0 -365 0 -365 95 0 95 0 0 208 c0 180 3 212 19 248 34 75 115 116 190 96
l41 -10 0 98 c0 80 -3 99 -16 104 -20 8 -52 6 -85 -3z"/>
<path d="M7100 1117 c-115 -27 -202 -92 -251 -189 -59 -117 -59 -250 1 -367
37 -73 90 -123 170 -160 155 -72 337 -41 453 77 l38 38 -68 41 -68 40 -32 -25
c-75 -56 -161 -66 -239 -27 -52 26 -90 72 -100 120 l-6 30 268 0 c308 0 281
-12 264 113 -6 40 -21 97 -35 127 -65 137 -239 217 -395 182z m150 -153 c45
-18 77 -56 86 -103 l7 -31 -171 0 -171 0 10 29 c6 16 26 45 45 65 53 54 122
69 194 40z"/>
</g>
</svg>
